<?xml version="1.0" standalone="no"?>
<svg version="1.0" xmlns="http://www.w3.org/2000/svg"
 width="600.000000pt" height="600.000000pt" viewBox="0 0 600.000000 600.000000"
 preserveAspectRatio="xMidYMid meet">
<g transform="translate(0.000000,600.000000) scale(0.100000,-0.100000)"
fill="#00000" stroke="none">
<path d="M0 3000 l0 -3000 3000 0 3000 0 0 3000 0 3000 -3000 0 -3000 0 0
-3000z m3869 1046 c311 -109 494 -410 440 -723 l-11 -63 -84 0 c-73 0 -84 -2
-84 -17 1 -27 33 -94 63 -129 l26 -30 -45 -58 c-99 -125 -239 -200 -451 -242
-13 -2 -23 -10 -23 -17 0 -6 28 -97 62 -202 l62 -189 260 -296 c303 -343 318
-361 312 -368 -3 -2 -105 54 -226 127 -121 72 -227 131 -233 131 -7 0 -17 -4
-22 -9 -6 -5 -98 -55 -205 -111 -107 -57 -207 -112 -222 -122 l-27 -19 31 -67
c17 -37 50 -110 73 -162 24 -52 59 -130 78 -172 20 -43 33 -79 29 -82 -4 -2
-100 51 -212 118 -113 68 -266 159 -340 203 -74 44 -213 126 -308 182 -95 57
-175 101 -177 99 -3 -2 20 -125 51 -274 30 -148 57 -284 61 -302 l6 -32 -352
0 -351 0 -2 942 -3 943 -211 125 c-116 69 -212 130 -215 135 -3 7 203 12 599
15 l603 5 -300 340 c-165 187 -300 344 -301 348 0 4 352 6 783 5 l782 -3 84
-29z"/>
<path d="M3829 3681 c-31 -31 -39 -46 -39 -76 0 -30 8 -45 39 -76 54 -54 98
-54 152 0 54 54 54 98 0 152 -54 54 -98 54 -152 0z"/>
<path d="M2420 2874 c0 -4 28 -143 61 -308 34 -166 65 -319 69 -341 6 -32 45
-229 66 -332 2 -13 9 -23 15 -23 6 0 70 31 143 69 72 38 194 101 271 141 280
146 315 165 315 173 1 8 -84 77 -245 199 -55 41 -219 146 -365 233 -146 86
-280 166 -297 177 -18 11 -33 16 -33 12z"/>
</g>
</svg>
